<svg width="24" height="24" viewBox="0 0 24 24" fill="none" xmlns="http://www.w3.org/2000/svg">
<path d="M7.46943 18.9277L7.77557 19.1087C9.06134 19.8703 10.5356 20.2732 12.039 20.2739H12.0422C16.6591 20.2739 20.4166 16.5245 20.4185 11.916C20.4193 9.68285 19.5489 7.58283 17.9674 6.00312C17.1917 5.22406 16.2689 4.60629 15.2524 4.18558C14.2359 3.76487 13.1459 3.54958 12.0455 3.55216C7.42492 3.55216 3.66731 7.3012 3.66567 11.9093C3.66339 13.4829 4.10736 15.0249 4.94624 16.3573L5.14553 16.6733L4.29917 19.7573L7.46943 18.9277ZM1.87939 22.1464L3.30926 16.9358C2.42743 15.4109 1.9635 13.681 1.96404 11.9087C1.96637 6.36418 6.48706 1.85352 12.0423 1.85352C14.7381 1.85488 17.2684 2.90196 19.1714 4.80266C21.0744 6.70336 22.1214 9.22979 22.1204 11.9167C22.118 17.4608 17.5966 21.9723 12.0422 21.9723H12.0378C10.3512 21.9716 8.69398 21.5493 7.22192 20.7482L1.87939 22.1464Z" fill="#B3B3B3"/>
<path d="M1.776 22.0431L3.20587 16.8325C2.32251 15.3039 1.85852 13.5699 1.86065 11.8053C1.86298 6.26085 6.38366 1.75018 11.9389 1.75018C14.6347 1.75155 17.165 2.79862 19.068 4.69933C20.971 6.60003 22.018 9.12646 22.017 11.8134C22.0146 17.3575 17.4932 21.8689 11.9388 21.8689H11.9344C10.2478 21.8683 8.59058 21.446 7.11853 20.6448L1.776 22.0431Z" fill="white"/>
<path d="M11.9419 3.44881C7.32139 3.44881 3.56379 7.19786 3.56214 11.806C3.55987 13.3795 4.00383 14.9216 4.84271 16.2539L5.04201 16.5701L4.19565 19.6541L7.36604 18.8244L7.67218 19.0054C8.95795 19.767 10.4322 20.1697 11.9356 20.1706H11.9388C16.5558 20.1706 20.3134 16.4211 20.3151 11.8127C20.3186 10.7143 20.1038 9.62612 19.683 8.61116C19.2623 7.5962 18.644 6.67462 17.864 5.89978C17.0883 5.1207 16.1655 4.50292 15.1489 4.08221C14.1324 3.6615 13.0424 3.44622 11.9419 3.44881Z" fill="url(#paint0_linear_15076_3163)"/>
<path fill-rule="evenodd" clip-rule="evenodd" d="M9.41998 7.60157C9.23123 7.1831 9.03262 7.17462 8.85332 7.16738L8.37062 7.1615C8.20269 7.1615 7.92984 7.22439 7.69918 7.47594C7.46851 7.72749 6.81775 8.33544 6.81775 9.572C6.81775 10.8086 7.72013 12.0034 7.84587 12.1713C7.97162 12.3392 9.58791 14.9576 12.1475 15.965C14.2746 16.8023 14.7074 16.6358 15.1693 16.5939C15.6312 16.5521 16.6592 15.986 16.8689 15.3991C17.0786 14.8122 17.0787 14.3093 17.0159 14.2042C16.953 14.0991 16.7851 14.0366 16.533 13.9108C16.281 13.785 15.0432 13.1771 14.8124 13.0931C14.5816 13.0092 14.4138 12.9675 14.2457 13.2191C14.0776 13.4706 13.5956 14.0365 13.4486 14.2042C13.3017 14.3719 13.155 14.393 12.9029 14.2674C12.6509 14.1417 11.84 13.8762 10.8779 13.02C10.1294 12.3538 9.62407 11.5311 9.47696 11.2797C9.32985 11.0283 9.46134 10.8921 9.58763 10.7669C9.70064 10.6542 9.83939 10.4733 9.96554 10.3266C10.0917 10.18 10.1332 10.0751 10.217 9.90763C10.3009 9.74015 10.2591 9.59305 10.1961 9.46741C10.1331 9.34178 9.64379 8.09866 9.41998 7.60157Z" fill="white"/>
<defs>
<linearGradient id="paint0_linear_15076_3163" x1="11.7681" y1="4.45228" x2="11.8527" y2="18.7421" gradientUnits="userSpaceOnUse">
<stop stop-color="#57D163"/>
<stop offset="1" stop-color="#23B33A"/>
</linearGradient>
</defs>
</svg>
