<svg width="24" height="24" viewBox="0 0 24 24" fill="none" xmlns="http://www.w3.org/2000/svg">
<g filter="url(#filter0_dddi_107_28887)">
<g clip-path="url(#clip0_107_28887)">
<path d="M1.875 9.25C1.875 6.44974 1.875 5.04961 2.41997 3.98005C2.89933 3.03924 3.66424 2.27433 4.60505 1.79497C5.67461 1.25 7.07474 1.25 9.875 1.25H13.875C16.6753 1.25 18.0754 1.25 19.145 1.79497C20.0858 2.27433 20.8507 3.03924 21.33 3.98005C21.875 5.04961 21.875 6.44974 21.875 9.25V13.25C21.875 16.0503 21.875 17.4504 21.33 18.52C20.8507 19.4608 20.0858 20.2257 19.145 20.705C18.0754 21.25 16.6753 21.25 13.875 21.25H9.875C7.07474 21.25 5.67461 21.25 4.60505 20.705C3.66424 20.2257 2.89933 19.4608 2.41997 18.52C1.875 17.4504 1.875 16.0503 1.875 13.25V9.25Z" fill="url(#paint0_linear_107_28887)"/>
<path d="M15.7812 12.0312C15.7822 12.1905 15.7338 12.3462 15.6427 12.4768C15.5516 12.6075 15.4222 12.7066 15.2724 12.7607L12.7539 13.6914L11.8261 16.2119C11.7712 16.3612 11.6718 16.49 11.5414 16.581C11.4109 16.6719 11.2557 16.7207 11.0967 16.7207C10.9376 16.7207 10.7824 16.6719 10.6519 16.581C10.5215 16.49 10.4221 16.3612 10.3672 16.2119L9.43356 13.6914L6.91306 12.7637C6.7638 12.7087 6.63499 12.6093 6.54401 12.4789C6.45302 12.3484 6.40424 12.1932 6.40424 12.0342C6.40424 11.8751 6.45302 11.7199 6.54401 11.5895C6.63499 11.459 6.7638 11.3596 6.91306 11.3047L9.43356 10.3711L10.3613 7.85059C10.4162 7.70133 10.5156 7.57252 10.6461 7.48154C10.7765 7.39055 10.9317 7.34176 11.0908 7.34176C11.2498 7.34176 11.4051 7.39055 11.5355 7.48154C11.6659 7.57252 11.7653 7.70133 11.8203 7.85059L12.7539 10.3711L15.2744 11.2988C15.4243 11.3534 15.5536 11.4532 15.6444 11.5844C15.7351 11.7156 15.783 11.8717 15.7812 12.0312ZM13.0468 7.34375H13.8281V8.125C13.8281 8.2286 13.8692 8.32796 13.9425 8.40121C14.0158 8.47447 14.1151 8.51562 14.2187 8.51562C14.3223 8.51562 14.4217 8.47447 14.4949 8.40121C14.5682 8.32796 14.6093 8.2286 14.6093 8.125V7.34375H15.3906C15.4942 7.34375 15.5936 7.30259 15.6668 7.22934C15.7401 7.15608 15.7812 7.05673 15.7812 6.95312C15.7812 6.84952 15.7401 6.75017 15.6668 6.67691C15.5936 6.60365 15.4942 6.5625 15.3906 6.5625H14.6093V5.78125C14.6093 5.67765 14.5682 5.57829 14.4949 5.50504C14.4217 5.43178 14.3223 5.39062 14.2187 5.39062C14.1151 5.39062 14.0158 5.43178 13.9425 5.50504C13.8692 5.57829 13.8281 5.67765 13.8281 5.78125V6.5625H13.0468C12.9432 6.5625 12.8439 6.60365 12.7706 6.67691C12.6974 6.75017 12.6562 6.84952 12.6562 6.95312C12.6562 7.05673 12.6974 7.15608 12.7706 7.22934C12.8439 7.30259 12.9432 7.34375 13.0468 7.34375ZM17.3437 8.90625H16.9531V8.51562C16.9531 8.41202 16.9119 8.31267 16.8387 8.23941C16.7654 8.16615 16.6661 8.125 16.5625 8.125C16.4589 8.125 16.3595 8.16615 16.2863 8.23941C16.213 8.31267 16.1718 8.41202 16.1718 8.51562V8.90625H15.7812C15.6776 8.90625 15.5783 8.9474 15.505 9.02066C15.4317 9.09392 15.3906 9.19327 15.3906 9.29687C15.3906 9.40047 15.4317 9.49983 15.505 9.57309C15.5783 9.64634 15.6776 9.6875 15.7812 9.6875H16.1718V10.0781C16.1718 10.1817 16.213 10.2811 16.2863 10.3543C16.3595 10.4276 16.4589 10.4687 16.5625 10.4687C16.6661 10.4687 16.7654 10.4276 16.8387 10.3543C16.9119 10.2811 16.9531 10.1817 16.9531 10.0781V9.6875H17.3437C17.4473 9.6875 17.5467 9.64634 17.6199 9.57309C17.6932 9.49983 17.7343 9.40047 17.7343 9.29687C17.7343 9.19327 17.6932 9.09392 17.6199 9.02066C17.5467 8.9474 17.4473 8.90625 17.3437 8.90625Z" fill="#F8F8F8"/>
</g>
<path d="M9.875 1.3125H13.875C15.2762 1.3125 16.3237 1.31299 17.1543 1.38086C17.9838 1.44866 18.5919 1.58349 19.1162 1.85059C20.0453 2.32396 20.801 3.07974 21.2744 4.00879C21.5415 4.53313 21.6763 5.1412 21.7441 5.9707C21.812 6.80133 21.8125 7.84884 21.8125 9.25V13.25C21.8125 14.6512 21.812 15.6987 21.7441 16.5293C21.6763 17.3588 21.5415 17.9669 21.2744 18.4912C20.801 19.4203 20.0453 20.176 19.1162 20.6494C18.5919 20.9165 17.9838 21.0513 17.1543 21.1191C16.3237 21.187 15.2762 21.1875 13.875 21.1875H9.875C8.47384 21.1875 7.42633 21.187 6.5957 21.1191C5.7662 21.0513 5.15813 20.9165 4.63379 20.6494C3.70474 20.176 2.94896 19.4203 2.47559 18.4912C2.20849 17.9669 2.07366 17.3588 2.00586 16.5293C1.93799 15.6987 1.9375 14.6512 1.9375 13.25V9.25C1.9375 7.84884 1.93799 6.80133 2.00586 5.9707C2.07366 5.1412 2.20849 4.53313 2.47559 4.00879C2.94896 3.07974 3.70474 2.32396 4.63379 1.85059C5.15813 1.58349 5.7662 1.44866 6.5957 1.38086C7.42633 1.31299 8.47384 1.3125 9.875 1.3125Z" stroke="#0A0D12" stroke-opacity="0.12" stroke-width="0.125"/>
</g>
<defs>
<filter id="filter0_dddi_107_28887" x="0" y="0" width="23.75" height="23.75" filterUnits="userSpaceOnUse" color-interpolation-filters="sRGB">
<feFlood flood-opacity="0" result="BackgroundImageFix"/>
<feColorMatrix in="SourceAlpha" type="matrix" values="0 0 0 0 0 0 0 0 0 0 0 0 0 0 0 0 0 0 127 0" result="hardAlpha"/>
<feOffset dy="0.625"/>
<feGaussianBlur stdDeviation="0.625"/>
<feColorMatrix type="matrix" values="0 0 0 0 0.0392157 0 0 0 0 0.0509804 0 0 0 0 0.0705882 0 0 0 0.06 0"/>
<feBlend mode="normal" in2="BackgroundImageFix" result="effect1_dropShadow_107_28887"/>
<feColorMatrix in="SourceAlpha" type="matrix" values="0 0 0 0 0 0 0 0 0 0 0 0 0 0 0 0 0 0 127 0" result="hardAlpha"/>
<feOffset dy="0.625"/>
<feGaussianBlur stdDeviation="0.9375"/>
<feColorMatrix type="matrix" values="0 0 0 0 0.0392157 0 0 0 0 0.0509804 0 0 0 0 0.0705882 0 0 0 0.1 0"/>
<feBlend mode="normal" in2="effect1_dropShadow_107_28887" result="effect2_dropShadow_107_28887"/>
<feColorMatrix in="SourceAlpha" type="matrix" values="0 0 0 0 0 0 0 0 0 0 0 0 0 0 0 0 0 0 127 0" result="hardAlpha"/>
<feMorphology radius="0.3125" operator="erode" in="SourceAlpha" result="effect3_dropShadow_107_28887"/>
<feOffset dy="0.625"/>
<feGaussianBlur stdDeviation="0.3125"/>
<feComposite in2="hardAlpha" operator="out"/>
<feColorMatrix type="matrix" values="0 0 0 0 0.0392157 0 0 0 0 0.0509804 0 0 0 0 0.0705882 0 0 0 0.13 0"/>
<feBlend mode="normal" in2="effect2_dropShadow_107_28887" result="effect3_dropShadow_107_28887"/>
<feBlend mode="normal" in="SourceGraphic" in2="effect3_dropShadow_107_28887" result="shape"/>
<feColorMatrix in="SourceAlpha" type="matrix" values="0 0 0 0 0 0 0 0 0 0 0 0 0 0 0 0 0 0 127 0" result="hardAlpha"/>
<feOffset dy="-0.3125"/>
<feGaussianBlur stdDeviation="0.15625"/>
<feComposite in2="hardAlpha" operator="arithmetic" k2="-1" k3="1"/>
<feColorMatrix type="matrix" values="0 0 0 0 0.0392157 0 0 0 0 0.0509804 0 0 0 0 0.0705882 0 0 0 0.1 0"/>
<feBlend mode="normal" in2="shape" result="effect4_innerShadow_107_28887"/>
</filter>
<linearGradient id="paint0_linear_107_28887" x1="19.5833" y1="1.25" x2="3.54167" y2="21.25" gradientUnits="userSpaceOnUse">
<stop stop-color="#394FB6"/>
<stop offset="0.501844" stop-color="#5E79D5"/>
<stop offset="1" stop-color="#394FB6"/>
</linearGradient>
<clipPath id="clip0_107_28887">
<path d="M1.875 9.25C1.875 6.44974 1.875 5.04961 2.41997 3.98005C2.89933 3.03924 3.66424 2.27433 4.60505 1.79497C5.67461 1.25 7.07474 1.25 9.875 1.25H13.875C16.6753 1.25 18.0754 1.25 19.145 1.79497C20.0858 2.27433 20.8507 3.03924 21.33 3.98005C21.875 5.04961 21.875 6.44974 21.875 9.25V13.25C21.875 16.0503 21.875 17.4504 21.33 18.52C20.8507 19.4608 20.0858 20.2257 19.145 20.705C18.0754 21.25 16.6753 21.25 13.875 21.25H9.875C7.07474 21.25 5.67461 21.25 4.60505 20.705C3.66424 20.2257 2.89933 19.4608 2.41997 18.52C1.875 17.4504 1.875 16.0503 1.875 13.25V9.25Z" fill="white"/>
</clipPath>
</defs>
</svg>
