<svg width="358" height="271" viewBox="0 0 358 271" fill="none" xmlns="http://www.w3.org/2000/svg">
<g filter="url(#filter0_dd_75_6850)">
<rect x="17.0781" y="5.03088" width="177.387" height="45.5856" rx="7.92793" fill="white" shape-rendering="crispEdges"/>
<rect x="17.3259" y="5.27863" width="176.892" height="45.0901" rx="7.68018" stroke="black" stroke-opacity="0.12" stroke-width="0.495496" shape-rendering="crispEdges"/>
<g clip-path="url(#clip0_75_6850)">
<rect x="23.0244" y="10.9768" width="25.1507" height="25.1507" rx="12.5753" fill="#F2A4A4"/>
<path d="M46.7728 36.9332H24.2861C25.323 32.2788 28.1057 31.3492 28.1057 31.3492L33.4692 28.8406L35.5016 28.822H35.5573L37.5918 28.8406L42.9553 31.3492C42.9553 31.3492 45.7359 32.2788 46.7728 36.9332Z" fill="white"/>
<path d="M36.7559 15.4703C36.7559 15.4703 38.6273 14.6363 39.2908 16.2131C39.9294 17.7313 37.393 19.1779 37.393 19.1779L36.7559 15.4703Z" fill="#1E0B02"/>
<path d="M33.2582 21.7641C33.2779 22.4652 32.7257 23.0498 32.0247 23.0696C31.3236 23.0893 30.7391 22.5371 30.7193 21.8361C30.6995 21.135 31.2517 20.5505 31.9527 20.5307C32.6538 20.5109 33.2382 21.0631 33.2582 21.7641Z" fill="#C67D69"/>
<path d="M31.2666 21.6217C31.2666 21.6217 31.7716 21.3758 32.2529 22.2531" stroke="#A8523F" stroke-width="0.425666" stroke-miterlimit="10" stroke-linecap="round" stroke-linejoin="round"/>
<path d="M39.1625 23.0701C39.8639 23.0701 40.4325 22.5015 40.4325 21.8001C40.4325 21.0987 39.8639 20.5302 39.1625 20.5302C38.4612 20.5302 37.8926 21.0987 37.8926 21.8001C37.8926 22.5015 38.4612 23.0701 39.1625 23.0701Z" fill="#C67D69"/>
<path d="M39.8791 21.6014C39.8791 21.6014 39.3673 21.3699 38.9111 22.2604" stroke="#A8523F" stroke-width="0.425666" stroke-miterlimit="10" stroke-linecap="round" stroke-linejoin="round"/>
<path d="M37.2051 24.7265C37.2051 24.7265 36.489 25.2318 35.8366 25.3565C35.1842 25.4812 34.5497 25.1025 34.5417 25.0978C34.5337 25.0932 33.7798 24.6595 33.7798 24.6595L33.4678 28.8396L33.5523 28.9093C34.6586 29.8218 36.2534 29.8328 37.3721 28.9353L37.5357 28.804L37.2051 24.7265Z" fill="#C67D69"/>
<path d="M33.4678 24.22C33.4678 24.22 34.1793 26.5492 35.8168 26.5235C37.1628 26.5022 37.3799 24.22 37.3799 24.22H33.4678Z" fill="#1E0B02"/>
<path d="M39.0064 19.5892C39.0136 21.0247 38.8149 22.2646 38.6146 23.1448C38.4186 24.0066 37.8577 24.611 37.0631 25.0993L36.9183 25.1881C36.0777 25.7047 34.9884 25.7222 34.1296 25.2328C33.2637 24.7394 32.6558 24.0859 32.4649 23.1631C32.118 21.4848 32.0716 19.6243 32.0716 19.6243C32.0716 19.6243 31.5841 15.7412 35.3241 15.7927C39.0646 15.8443 39.0064 19.5892 39.0064 19.5892Z" fill="#C67D69"/>
<path d="M33.9247 21.0309C34.0918 21.0309 34.2273 20.8954 34.2273 20.7283C34.2273 20.5611 34.0918 20.4257 33.9247 20.4257C33.7576 20.4257 33.6221 20.5611 33.6221 20.7283C33.6221 20.8954 33.7576 21.0309 33.9247 21.0309Z" fill="#1E0B02"/>
<path d="M36.8944 21.0309C37.0615 21.0309 37.197 20.8954 37.197 20.7283C37.197 20.5611 37.0615 20.4257 36.8944 20.4257C36.7273 20.4257 36.5918 20.5611 36.5918 20.7283C36.5918 20.8954 36.7273 21.0309 36.8944 21.0309Z" fill="#1E0B02"/>
<path d="M35.1367 21.1703V22.0051H35.676" stroke="#A8523F" stroke-width="0.425666" stroke-miterlimit="10" stroke-linecap="round" stroke-linejoin="round"/>
<path d="M32.7979 19.4492L34.7755 19.2709C34.7755 19.2709 34.5984 18.7584 33.7988 18.8415C32.9807 18.9266 32.7979 19.4492 32.7979 19.4492Z" fill="black"/>
<path d="M37.8944 19.4492L35.917 19.2709C35.917 19.2709 36.0941 18.7584 36.8936 18.8415C37.7116 18.9266 37.8944 19.4492 37.8944 19.4492Z" fill="black"/>
<path d="M34.46 22.6964H36.4108C36.4108 22.6964 36.319 23.294 35.4065 23.294C34.4938 23.294 34.46 22.6964 34.46 22.6964Z" fill="white"/>
<path d="M32.1996 21.4618C32.1996 21.4618 32.7532 17.2622 32.4824 16.5702C32.4824 16.5702 30.5988 18.1283 32.1996 21.4618Z" fill="#1E0B02"/>
<path d="M38.8625 21.428C38.8625 21.428 38.2394 17.4176 38.4121 16.2637C38.4121 16.2637 40.2312 17.8748 38.8625 21.428Z" fill="#1E0B02"/>
<path d="M38.2832 15.9778L36.5587 15.7171L36.4068 15.4188L35.4968 15.5565L34.5867 15.4188L34.4348 15.7171L32.7105 15.9778L32.4805 16.9005L32.5372 17.9641C32.5372 17.9641 32.8101 16.7576 33.7603 16.998C33.9844 17.0547 34.2526 17.1485 34.5663 17.2117C34.8592 17.2756 35.1385 17.3045 35.4017 17.309C35.4329 17.3099 35.4652 17.309 35.4968 17.3092C35.5285 17.309 35.5607 17.3099 35.5918 17.309C35.8552 17.3045 36.1343 17.2756 36.4272 17.2117C36.7407 17.1485 37.0149 17.0738 37.2332 16.998C38.114 16.6915 38.4384 17.9091 38.4384 17.9091L38.513 16.9005L38.2832 15.9778Z" fill="#1E0B02"/>
<path d="M38.2484 17.0273C38.2484 17.0273 37.1268 18.028 35.6899 17.2592C35.6899 17.2592 32.0344 19.5111 31.0025 17.0596C30.1424 15.0159 33.7131 12.2424 37.3973 15.3677L38.2484 17.0273Z" fill="#1E0B02"/>
<path d="M33.4687 28.8396L32.2705 29.3901C32.2705 29.3901 32.2575 31.3991 35.5135 31.2948C38.8522 31.188 38.8324 29.4205 38.8324 29.4205L37.5365 28.8037L33.4687 28.8396Z" fill="#C67D69"/>
</g>
<rect x="52.1387" y="10.9768" width="79.6488" height="7.39596" rx="3.69798" fill="#E6E6E6"/>
<rect x="52.1387" y="22.3368" width="35.8419" height="7.39596" rx="3.69798" fill="#E6E6E6"/>
<rect x="52.1387" y="33.6967" width="17.2911" height="7.85959" rx="3.92979" fill="#E6E6E6"/>
</g>
<rect x="17.7084" y="57.5344" width="176.127" height="44.3251" rx="9.45349" stroke="black" stroke-opacity="0.12" stroke-width="1.26047" stroke-dasharray="4.13 4.13"/>
<g filter="url(#filter1_dd_75_6850)">
<rect x="17.0781" y="108.777" width="177.387" height="45.5856" rx="7.92793" fill="white" shape-rendering="crispEdges"/>
<rect x="17.3259" y="109.025" width="176.892" height="45.0901" rx="7.68018" stroke="black" stroke-opacity="0.12" stroke-width="0.495496" shape-rendering="crispEdges"/>
<g clip-path="url(#clip1_75_6850)">
<rect x="23.0244" y="114.723" width="25.1507" height="25.1507" rx="12.5753" fill="#F2E2A4"/>
<path d="M39.2023 127.499C39.9488 127.499 40.554 126.894 40.554 126.148C40.554 125.401 39.9488 124.796 39.2023 124.796C38.4558 124.796 37.8506 125.401 37.8506 126.148C37.8506 126.894 38.4558 127.499 39.2023 127.499Z" fill="#E8B499"/>
<path d="M39.9649 125.936C39.9649 125.936 39.4203 125.69 38.9346 126.638" stroke="#C47268" stroke-width="0.130981" stroke-miterlimit="10" stroke-linecap="round" stroke-linejoin="round"/>
<path d="M32.9158 126.109C32.9368 126.856 32.3491 127.478 31.6029 127.499C30.8567 127.52 30.2345 126.932 30.2134 126.186C30.1924 125.44 30.7801 124.818 31.5263 124.796C32.2725 124.775 32.8947 125.363 32.9158 126.109Z" fill="#E8B499"/>
<path d="M30.7969 125.958C30.7969 125.958 31.3344 125.696 31.8467 126.63" stroke="#C47268" stroke-width="0.130981" stroke-miterlimit="10" stroke-linecap="round" stroke-linejoin="round"/>
<path d="M41.3353 140.813H29.1543L29.1762 134.457C29.4242 134.303 29.7182 134.183 30.0121 134.088C30.7164 133.865 31.4053 133.801 31.4053 133.801L35.2404 134.187L39.0755 133.801C39.0755 133.801 39.5955 133.849 40.1922 134.009C40.1944 134.009 40.1966 134.012 40.1988 134.012C40.5718 134.11 40.9755 134.255 41.3024 134.457L41.3353 140.813Z" fill="#EF758D"/>
<path d="M30.0303 134.085L34.5497 132.897H36.108L40.195 134.01C38.105 135.969 32.9173 137.575 30.2637 134.176L30.0303 134.085Z" fill="#E8B499"/>
<path d="M36.6901 128.845C36.6901 128.845 36.1051 129.382 35.5718 129.514C35.0384 129.646 34.5191 129.242 34.5125 129.237C34.506 129.233 33.8888 128.77 33.8888 128.77L33.6387 133.219L33.7078 133.293C34.6137 134.266 35.918 134.279 36.8316 133.325L36.9652 133.186L36.6901 128.845Z" fill="#E8B499"/>
<path d="M30.0294 134.086L29.5029 140.813H25.2334C25.6788 139.769 26.2009 138.512 26.6814 137.279C27.7631 134.492 29.8166 134.119 30.0141 134.088C30.0251 134.086 30.0294 134.086 30.0294 134.086Z" fill="#EF758D"/>
<path d="M45.279 140.813H40.8932L40.1934 134.01C40.1956 134.01 40.1977 134.012 40.1999 134.012C40.3425 134.029 42.6243 134.387 43.8025 137.279C44.329 138.573 44.8556 139.821 45.279 140.813Z" fill="#EF758D"/>
<path d="M35.3185 137.299C39.1821 137.136 41.6834 134.735 41.6834 134.735C41.4267 133.701 40.1911 132.898 40.1911 132.898C40.1911 132.898 40.3545 132.227 39.9662 131.695C39.5779 131.162 40.1604 130.378 40.7106 128.182C41.2609 125.987 40.8078 122.48 39.4162 120.066C38.0261 117.655 35.2318 117.841 35.2261 117.841C35.2204 117.841 32.4261 117.655 31.036 120.066C29.6444 122.48 29.1913 125.986 29.7416 128.182C30.2918 130.378 30.8743 131.162 30.486 131.695C30.0977 132.227 30.2609 132.898 30.2609 132.898C30.2609 132.898 29.025 133.701 28.7686 134.735C28.7686 134.735 31.2699 137.135 35.1335 137.299V137.307C35.1647 137.306 35.1952 137.304 35.2263 137.303C35.2575 137.304 35.2878 137.306 35.3191 137.307L35.3185 137.299Z" fill="#28466D"/>
<path d="M39.4671 124.592C40.0275 122.315 38.6362 120.015 36.3595 119.455C34.0829 118.895 31.783 120.286 31.2226 122.563C30.6623 124.839 32.0536 127.139 34.3303 127.7C36.6069 128.26 38.9068 126.869 39.4671 124.592Z" fill="#28466D"/>
<path d="M33.4668 128.182C33.4668 128.182 34.2171 130.782 35.5561 130.756C36.6568 130.735 36.9625 128.311 36.9625 128.311L33.4668 128.182Z" fill="#1E0B02"/>
<path d="M39.0328 123.62C39.0403 125.082 38.8283 126.346 38.6151 127.242C38.4062 128.12 37.809 128.736 36.9632 129.234L36.8092 129.324C35.9143 129.851 34.7548 129.869 33.841 129.37C32.9193 128.868 32.2725 128.202 32.0698 127.262C31.701 125.553 31.652 123.657 31.652 123.657C31.652 123.657 31.3438 119.702 35.3248 119.753C39.3053 119.805 39.0328 123.62 39.0328 123.62Z" fill="#E8B499"/>
<path d="M35.0225 125.786V126.365H35.413" stroke="#C47268" stroke-width="0.130981" stroke-miterlimit="10" stroke-linecap="round" stroke-linejoin="round"/>
<path d="M32.3193 123.587L34.424 123.397C34.424 123.397 34.2356 122.852 33.3845 122.941C32.5139 123.031 32.3193 123.587 32.3193 123.587Z" fill="black"/>
<path d="M38.1057 123.587L36.001 123.397C36.001 123.397 36.1894 122.852 37.0405 122.94C37.9113 123.031 38.1057 123.587 38.1057 123.587Z" fill="black"/>
<path d="M34.0684 126.9H36.3666C36.3666 126.9 36.2784 127.499 35.1763 127.499C34.2717 127.499 34.0684 126.9 34.0684 126.9Z" fill="white"/>
<path d="M34.1767 125.006C34.1767 125.006 33.6321 124.561 33.1543 125.006" stroke="#1E0B02" stroke-width="0.181913" stroke-miterlimit="10" stroke-linecap="round" stroke-linejoin="round"/>
<path d="M37.2524 125.006C37.2524 125.006 36.8259 124.549 36.2559 125.006" stroke="#1E0B02" stroke-width="0.181913" stroke-miterlimit="10" stroke-linecap="round" stroke-linejoin="round"/>
<path opacity="0.23" d="M33.1545 123.552L34.6971 125.646C34.6971 125.646 34.2318 126.535 33.4907 126.437L31.9336 124.393C31.9336 124.393 32.3548 123.495 33.1545 123.552Z" fill="white"/>
<path opacity="0.23" d="M36.9495 123.552L38.4921 125.646C38.4921 125.646 38.0267 126.535 37.2856 126.437L35.7285 124.393C35.7285 124.393 36.1495 123.495 36.9495 123.552Z" fill="white"/>
<path d="M34.8204 125.007C34.8204 125.84 34.1451 126.515 33.3121 126.515C32.479 126.515 31.8037 125.84 31.8037 125.007C31.8037 124.174 32.479 123.498 33.3121 123.498C34.1451 123.498 34.8204 124.174 34.8204 125.007Z" stroke="white" stroke-width="0.0937045" stroke-miterlimit="10"/>
<path d="M38.6202 125.007C38.6202 125.84 37.9449 126.515 37.1119 126.515C36.2788 126.515 35.6035 125.84 35.6035 125.007C35.6035 124.174 36.2788 123.498 37.1119 123.498C37.9449 123.498 38.6202 124.174 38.6202 125.007Z" stroke="white" stroke-width="0.0937045" stroke-miterlimit="10"/>
<path d="M34.8203 125.007C34.8203 125.007 35.2512 124.848 35.602 125.007" stroke="white" stroke-width="0.0937045" stroke-miterlimit="10"/>
<path d="M39.034 122.721C38.6292 118.991 36.1349 119.101 35.1518 119.295C34.1689 119.101 31.6743 118.991 31.2695 122.721C31.2695 122.721 32.1917 122.545 33.1928 122.022C34.415 121.384 35.8883 121.384 37.1108 122.022C38.1119 122.546 39.034 122.721 39.034 122.721Z" fill="#28466D"/>
</g>
<rect x="52.1387" y="114.723" width="79.6488" height="7.39596" rx="3.69798" fill="#E6E6E6"/>
<rect x="52.1387" y="126.083" width="35.8419" height="7.39596" rx="3.69798" fill="#E6E6E6"/>
<rect x="52.1387" y="137.443" width="55.0171" height="7.85959" rx="3.92979" fill="#E6E6E6"/>
</g>
<g filter="url(#filter2_dd_75_6850)">
<rect x="17.0781" y="160.651" width="177.387" height="45.5856" rx="7.92793" fill="white" shape-rendering="crispEdges"/>
<rect x="17.3259" y="160.898" width="176.892" height="45.0901" rx="7.68018" stroke="black" stroke-opacity="0.12" stroke-width="0.495496" shape-rendering="crispEdges"/>
<g clip-path="url(#clip2_75_6850)">
<rect x="23.0244" y="166.597" width="25.1507" height="25.1507" rx="12.5753" fill="#A4B5F2"/>
<path d="M32.983 176.546C33.0031 177.258 32.4421 177.852 31.73 177.872C31.0178 177.892 30.4239 177.331 30.4038 176.619C30.3837 175.907 30.9447 175.313 31.6569 175.293C32.3693 175.273 32.9629 175.834 32.983 176.546Z" fill="#E8B499"/>
<path d="M30.9619 176.401C30.9619 176.401 31.4749 176.151 31.9639 177.042" stroke="#C47268" stroke-width="0.125012" stroke-miterlimit="10" stroke-linecap="round" stroke-linejoin="round"/>
<path d="M37.6924 176.582C37.6924 177.295 38.2699 177.872 38.9825 177.872C39.6951 177.872 40.2726 177.295 40.2726 176.582C40.2726 175.87 39.6951 175.292 38.9825 175.292C38.2699 175.292 37.6924 175.87 37.6924 176.582Z" fill="#E8B499"/>
<path d="M39.7089 176.381C39.7089 176.381 39.189 176.145 38.7256 177.05" stroke="#C47268" stroke-width="0.125012" stroke-miterlimit="10" stroke-linecap="round" stroke-linejoin="round"/>
<path d="M36.9929 179.555C36.9929 179.555 36.2655 180.068 35.6027 180.195C34.94 180.322 34.2954 179.937 34.2873 179.932C34.2791 179.928 33.5133 179.487 33.5133 179.487L33.1963 183.734L33.2821 183.804C34.406 184.731 36.0261 184.743 37.1625 183.831L37.3288 183.697L36.9929 179.555Z" fill="#E8B499"/>
<path d="M33.1963 179.041C33.1963 179.041 33.9191 181.407 35.5826 181.381C36.95 181.359 37.1705 179.041 37.1705 179.041H33.1963Z" fill="#1E0B02"/>
<path d="M38.9231 173.568C38.9305 175.026 38.6262 177.054 38.4229 177.949C38.2237 178.824 37.4535 179.438 36.6465 179.934L36.4995 180.024C35.6456 180.549 34.9395 180.567 34.0671 180.07C33.1874 179.568 32.3695 178.904 32.1758 177.967C31.8234 176.262 31.5556 175.306 31.4607 174.402C31.3047 172.913 31.3659 169.71 35.1828 169.711C38.9828 169.712 38.9231 173.568 38.9231 173.568Z" fill="#E8B499"/>
<path d="M33.9673 175.494C33.9673 175.664 33.8298 175.801 33.6599 175.801C33.4901 175.801 33.3525 175.664 33.3525 175.494C33.3525 175.324 33.4903 175.186 33.6599 175.186C33.8298 175.186 33.9673 175.324 33.9673 175.494Z" fill="#1E0B02"/>
<path d="M36.9839 175.494C36.9839 175.664 36.8464 175.801 36.6765 175.801C36.5067 175.801 36.3691 175.664 36.3691 175.494C36.3691 175.324 36.5069 175.186 36.6765 175.186C36.8462 175.186 36.9839 175.324 36.9839 175.494Z" fill="#1E0B02"/>
<path d="M34.8896 176.298V176.79H35.2888" stroke="#C47268" stroke-width="0.125012" stroke-miterlimit="10" stroke-linecap="round" stroke-linejoin="round"/>
<path d="M32.5146 174.194L34.5234 174.013C34.5234 174.013 34.3436 173.492 33.5313 173.577C32.7002 173.663 32.5146 174.194 32.5146 174.194Z" fill="black"/>
<path d="M37.6926 174.194L35.6836 174.013C35.6836 174.013 35.8635 173.492 36.6757 173.577C37.5068 173.663 37.6926 174.194 37.6926 174.194Z" fill="black"/>
<path d="M45.2122 192.686H25.2354C25.5997 191.174 25.9745 189.83 26.3452 188.783C26.8938 187.238 27.6832 186.333 28.3366 185.818C28.9878 185.301 29.5029 185.171 29.5029 185.171L30.8892 184.591L39.6589 184.599L40.9446 185.171C40.9446 185.171 43.0051 185.69 44.1023 188.783C44.4732 189.83 44.848 191.174 45.2122 192.686Z" fill="white"/>
<path d="M35.3818 182.744L39.6617 184.599C39.6617 184.599 35.2643 188.573 30.8916 184.59L35.3818 182.744Z" fill="#E8B499"/>
<path d="M30.8916 184.59C30.8916 184.59 32.4152 186.393 35.2656 186.393C38.1159 186.393 39.6617 184.599 39.6617 184.599" stroke="white" stroke-width="0.351855" stroke-miterlimit="10"/>
<path d="M38.5233 176.241C38.5233 176.241 38.4561 176.206 38.2206 176.582C37.985 176.959 37.7942 177.969 37.7942 177.969C37.7942 177.969 37.5708 177.498 36.9813 177.195C36.4432 176.918 35.3128 177.071 35.1204 177.1C34.8218 177.048 34.1155 176.961 33.6602 177.195C33.071 177.498 32.8473 177.969 32.8473 177.969C32.8473 177.969 32.6566 176.959 32.421 176.582C32.1854 176.205 32.118 176.241 32.118 176.241C32.118 176.241 31.9947 178.204 32.5219 179.371C32.9849 180.396 34.7611 180.82 35.1834 180.841C35.1834 180.841 37.5921 180.538 38.1194 179.371C38.6467 178.204 38.5233 176.241 38.5233 176.241Z" fill="#A74B22"/>
<path d="M34.2012 177.493H36.1829C36.1829 177.493 36.0898 178.1 35.1627 178.1C34.2355 178.1 34.2012 177.493 34.2012 177.493Z" fill="white"/>
</g>
<rect x="52.1387" y="166.597" width="79.6488" height="7.39596" rx="3.69798" fill="#E6E6E6"/>
<rect x="52.1387" y="177.957" width="35.8419" height="7.39596" rx="3.69798" fill="#E6E6E6"/>
<rect x="52.1387" y="189.316" width="23.5788" height="7.85959" rx="3.92979" fill="#E6E6E6"/>
</g>
<g filter="url(#filter3_dd_75_6850)">
<rect x="17.0781" y="212.524" width="177.387" height="45.5856" rx="7.92793" fill="white" shape-rendering="crispEdges"/>
<rect x="17.3259" y="212.772" width="176.892" height="45.0901" rx="7.68018" stroke="black" stroke-opacity="0.12" stroke-width="0.495496" shape-rendering="crispEdges"/>
<g clip-path="url(#clip3_75_6850)">
<rect x="23.0244" y="218.47" width="25.1507" height="25.1507" rx="12.5753" fill="#C1A5F3"/>
<path d="M42.6857 240.877C42.333 239.937 41.2548 238.702 39.1665 238.375L35.2741 237.611L31.3818 238.375C29.2933 238.702 28.2153 239.937 27.8626 240.877L27.0469 244.56H30.6187H30.8797H35.2741H39.6686H39.9296H43.5014L42.6857 240.877Z" fill="#D3445B"/>
<path d="M31.2607 238.415L35.4818 237.559L39.4206 238.403L39.3331 238.466C36.9264 240.198 33.6871 240.119 31.2607 238.415Z" fill="#966050"/>
<path d="M33.1693 232.17C33.1936 232.799 32.7036 233.329 32.0749 233.353C31.4462 233.377 30.9167 232.887 30.8925 232.259C30.8682 231.63 31.3582 231.1 31.9869 231.076C32.6158 231.052 33.1451 231.542 33.1693 232.17Z" fill="#7C483D"/>
<path d="M31.3828 232.061C31.3828 232.061 31.8335 231.836 32.2735 232.618" stroke="black" stroke-width="0.110398" stroke-miterlimit="10" stroke-linecap="round" stroke-linejoin="round"/>
<path d="M37.3292 232.16C37.3357 232.789 37.8509 233.294 38.4802 233.287C39.1095 233.281 39.6141 232.766 39.6078 232.136C39.6012 231.507 39.086 231.002 38.4567 231.009C37.8275 231.015 37.3228 231.531 37.3292 232.16Z" fill="#7C483D"/>
<path d="M39.1084 231.963C39.1084 231.963 38.6473 231.76 38.2461 232.563" stroke="black" stroke-width="0.110398" stroke-miterlimit="10" stroke-linecap="round" stroke-linejoin="round"/>
<path d="M35.2212 233.066C37.3852 233.044 39.1226 231.388 39.1018 229.368C39.081 227.348 37.3099 225.729 35.1459 225.751C32.9818 225.774 31.2444 227.429 31.2652 229.449C31.286 231.469 33.0572 233.088 35.2212 233.066Z" fill="black"/>
<path d="M36.3706 234.444C36.3706 234.444 35.8825 234.902 35.4343 235.017C34.9861 235.133 34.5452 234.798 34.5394 234.793C34.5338 234.789 34.0099 234.405 34.0099 234.405L33.8379 238.156L33.8968 238.219C34.6684 239.03 35.7673 239.031 36.5287 238.219L36.64 238.1L36.3706 234.444Z" fill="#966050"/>
<path d="M33.6514 233.913C33.6514 233.913 34.3061 236.097 35.434 236.064C36.3612 236.037 36.5974 233.991 36.5974 233.991L33.6514 233.913Z" fill="#1E0B02"/>
<path d="M38.3024 230.019C38.3212 231.251 38.1539 232.318 37.9817 233.076C37.8133 233.817 37.3154 234.342 36.6068 234.768L36.4777 234.846C35.7281 235.297 34.751 235.323 33.9765 234.911C33.1954 234.495 32.6444 233.94 32.4652 233.149C32.1395 231.712 32.0817 230.115 32.0817 230.115C32.0817 230.115 31.7876 226.784 35.1431 226.792C38.499 226.802 38.3024 230.019 38.3024 230.019Z" fill="#966050"/>
<path d="M34.9414 231.758L34.9464 232.24L35.2756 232.237" stroke="#684138" stroke-width="0.166966" stroke-miterlimit="10" stroke-linecap="round" stroke-linejoin="round"/>
<path d="M32.6445 230.05L34.4168 229.872C34.4168 229.872 34.2532 229.414 33.5367 229.496C32.8038 229.58 32.6445 230.05 32.6445 230.05Z" fill="black"/>
<path d="M37.5206 230L35.7451 229.858C35.7451 229.858 35.8992 229.397 36.6171 229.464C37.3517 229.533 37.5206 230 37.5206 230Z" fill="black"/>
<path d="M34.0332 231.115C34.0348 231.265 33.9144 231.388 33.7645 231.39C33.6147 231.391 33.4918 231.271 33.4902 231.121C33.4887 230.971 33.6089 230.848 33.7589 230.847C33.9088 230.845 34.0317 230.966 34.0332 231.115Z" fill="#1E0B02"/>
<path d="M36.6983 231.088C36.6998 231.238 36.5794 231.36 36.4296 231.362C36.2795 231.363 36.1568 231.243 36.1553 231.093C36.1537 230.943 36.2739 230.82 36.424 230.819C36.5738 230.817 36.6967 230.938 36.6983 231.088Z" fill="#1E0B02"/>
<path d="M34.123 232.932C34.123 232.932 34.8812 233.335 36.0927 232.912" stroke="black" stroke-width="0.110398" stroke-miterlimit="10" stroke-linecap="round" stroke-linejoin="round"/>
<path d="M38.2955 229.262C38.2955 229.262 33.3596 229.498 33.5379 226.6C33.5379 226.6 37.8284 225.336 38.2955 229.262Z" fill="black"/>
<path d="M32.0009 229.329C32.0009 229.329 33.728 228.585 33.7097 226.807C33.7097 226.807 31.9337 227.031 32.0009 229.329Z" fill="black"/>
<path d="M35.0657 226.202C36.3408 226.202 37.3745 225.168 37.3745 223.893C37.3745 222.618 36.3408 221.584 35.0657 221.584C33.7905 221.584 32.7568 222.618 32.7568 223.893C32.7568 225.168 33.7905 226.202 35.0657 226.202Z" fill="black"/>
<path d="M34.971 225.358C34.971 226.075 34.3575 226.655 33.6007 226.655C32.8439 226.655 32.2305 226.075 32.2305 225.358C32.2305 224.641 32.8439 224.061 33.6007 224.061C34.3575 224.061 34.971 224.641 34.971 225.358Z" fill="black"/>
<path d="M36.8174 226.898C37.4927 226.898 38.0401 226.351 38.0401 225.676C38.0401 225 37.4927 224.453 36.8174 224.453C36.1422 224.453 35.5947 225 35.5947 225.676C35.5947 226.351 36.1422 226.898 36.8174 226.898Z" fill="black"/>
</g>
<rect x="52.1387" y="218.47" width="79.6488" height="7.39596" rx="3.69798" fill="#E6E6E6"/>
<g clip-path="url(#clip4_75_6850)">
<rect x="52.1387" y="229.83" width="35.8419" height="7.39596" rx="3.69798" fill="#E6E6E6"/>
</g>
<g clip-path="url(#clip5_75_6850)">
<rect x="52.1387" y="241.19" width="17.2911" height="7.85959" rx="3.92979" fill="#E6E6E6"/>
</g>
</g>
<path d="M302.524 130.474L297.09 133.322L303.178 138.091C303.178 138.091 307.271 134.633 305.664 132.245L302.524 130.474Z" fill="#E4897B"/>
<path d="M293.984 139.126L299.178 142.767L303.179 138.09L297.091 133.322L293.984 139.126Z" fill="#E4897B"/>
<path d="M304.629 83.113C305.375 84.0985 306.012 84.9838 306.659 85.9442C307.305 86.9046 307.918 87.8316 308.531 88.7837C309.74 90.7045 310.892 92.6754 311.952 94.6965C313.039 96.7384 314.024 98.8345 314.901 100.977L315.555 102.647L316.144 104.317C316.351 104.868 316.508 105.453 316.682 106.029L316.939 106.864L316.997 107.082L317.096 107.441C317.16 107.7 317.209 107.962 317.245 108.226C317.438 109.808 317.325 111.413 316.914 112.953C316.608 114.187 316.218 115.398 315.746 116.577C314.87 118.74 313.852 120.841 312.698 122.866C310.485 126.786 307.967 130.522 305.168 134.04L301.357 131.535C303.188 127.685 304.977 123.718 306.543 119.843C307.309 117.95 307.976 116.019 308.539 114.055C308.799 113.174 308.995 112.275 309.127 111.366C309.235 110.775 309.235 110.169 309.127 109.579L309.061 109.412L308.788 108.718C308.614 108.259 308.448 107.808 308.233 107.349L307.636 105.979L306.982 104.601C306.076 102.781 305.104 100.971 304.066 99.1728C303.014 97.3856 301.929 95.5984 300.752 93.8446C299.576 92.0908 298.408 90.312 297.298 88.7001L304.629 83.113Z" fill="#E4897B"/>
<path d="M315.945 95.9324L302.301 105.578C302.301 105.578 301.473 103.774 300.322 101.144C299.385 99.0475 298.217 96.4335 297.058 93.7944C296.586 92.7255 296.122 91.6565 295.666 90.6126C292.51 83.3635 296.196 78.1439 302.674 79.1126C308.382 79.9728 315.945 95.9324 315.945 95.9324Z" fill="#F8D83B"/>
<path d="M300.977 85.8942C301.242 88.4831 301.267 96.4921 300.322 101.144C299.386 99.0477 298.218 96.4337 297.059 93.7946L300.977 85.8942Z" fill="#394FB6"/>
<path opacity="0.8" d="M300.977 85.8942C301.242 88.4831 301.267 96.4921 300.322 101.144C299.386 99.0477 298.218 96.4337 297.059 93.7946L300.977 85.8942Z" fill="#394FB6"/>
<g opacity="0.8">
<path d="M300.977 85.8942C301.242 88.4831 301.267 96.4921 300.322 101.144C299.386 99.0477 298.218 96.4337 297.059 93.7946L300.977 85.8942Z" fill="black"/>
<path opacity="0.8" d="M300.977 85.8942C301.242 88.4831 301.267 96.4921 300.322 101.144C299.386 99.0477 298.218 96.4337 297.059 93.7946L300.977 85.8942Z" fill="black"/>
</g>
<g filter="url(#filter4_dd_75_6850)">
<rect x="178.887" y="69.9164" width="177.387" height="45.5856" rx="7.92793" transform="rotate(15 178.887 69.9164)" fill="white" shape-rendering="crispEdges"/>
<rect x="179.062" y="70.2198" width="176.892" height="45.0901" rx="7.68018" transform="rotate(15 179.062 70.2198)" stroke="black" stroke-opacity="0.12" stroke-width="0.495496" shape-rendering="crispEdges"/>
<g clip-path="url(#clip6_75_6850)">
<rect x="183.091" y="77.1986" width="25.1507" height="25.1507" rx="12.5753" transform="rotate(15 183.091 77.1986)" fill="#F2E2A4"/>
<path d="M191.479 86.4287C191.479 86.4287 193.386 84.9097 195.528 86.838C197.876 88.9522 195.606 91.5453 195.606 91.5453L190.059 88.8726L191.479 86.4287Z" fill="#1E0B02"/>
<path d="M189.304 89.8723C189.304 89.8723 188.579 86.4613 191.479 86.4286L191.532 88.1683L189.304 89.8723Z" fill="#1E0B02"/>
<path d="M190.228 91.6048C190.085 92.2087 189.479 92.582 188.875 92.4383C188.271 92.2946 187.897 91.6885 188.041 91.0846C188.185 90.4807 188.791 90.1074 189.395 90.2511C189.999 90.3946 190.372 91.0008 190.228 91.6048Z" fill="#E8B499"/>
<path d="M188.557 91.0264C188.557 91.0264 189.045 90.9318 189.256 91.7922" stroke="#C47268" stroke-width="0.12566" stroke-miterlimit="10" stroke-linecap="round" stroke-linejoin="round"/>
<path d="M194.184 92.6976C194.023 93.2974 194.379 93.9137 194.979 94.0744C195.578 94.2351 196.195 93.8793 196.355 93.2795C196.516 92.6798 196.16 92.0635 195.56 91.9028C194.961 91.7421 194.344 92.0979 194.184 92.6976Z" fill="#E8B499"/>
<path d="M195.925 92.9825C195.925 92.9825 195.54 92.6672 194.946 93.3242" stroke="#C47268" stroke-width="0.12566" stroke-miterlimit="10" stroke-linecap="round" stroke-linejoin="round"/>
<path d="M192.924 95.0419C192.924 95.0419 192.196 95.3098 191.61 95.267C191.023 95.2242 190.568 94.755 190.562 94.7491C190.556 94.7434 190.011 94.1999 190.011 94.1999L188.786 97.7024L188.843 97.7814C189.58 98.815 190.941 99.1898 192.103 98.6787L192.273 98.6039L192.924 95.0419Z" fill="#E8B499"/>
<path d="M189.844 93.7528C189.844 93.7528 189.919 95.9074 191.324 96.2605C192.48 96.5507 193.189 94.6491 193.189 94.6491L189.844 93.7528Z" fill="#1E0B02"/>
<path d="M195.638 91.0616C195.316 92.2906 194.862 93.3052 194.489 94.0119C194.124 94.7039 193.337 95.0469 192.546 95.2823L192.402 95.3251C191.565 95.5742 190.967 95.4299 190.345 94.8148C189.717 94.1945 189.179 93.4513 189.227 92.6186C189.315 91.1041 189.701 89.5028 189.701 89.5028C189.701 89.5028 190.174 86.071 193.36 86.9719C196.546 87.8732 195.638 91.0616 195.638 91.0616Z" fill="#E8B499"/>
<path d="M191.293 90.9413C191.255 91.0843 191.108 91.169 190.965 91.1307C190.822 91.0924 190.737 90.9456 190.775 90.8027C190.814 90.6597 190.961 90.575 191.103 90.6133C191.246 90.6515 191.331 90.7984 191.293 90.9413Z" fill="#1E0B02"/>
<path d="M193.832 91.6216C193.794 91.7645 193.647 91.8493 193.504 91.811C193.361 91.7727 193.276 91.6259 193.314 91.483C193.353 91.34 193.5 91.2553 193.643 91.2936C193.785 91.3319 193.87 91.4787 193.832 91.6216Z" fill="#1E0B02"/>
<path d="M191.887 91.826L191.776 92.2407L192.111 92.3307" stroke="#C47268" stroke-width="0.12566" stroke-miterlimit="10" stroke-linecap="round" stroke-linejoin="round"/>
<path d="M190.364 89.5198L192.095 89.8204C192.095 89.8204 192.061 89.3416 191.358 89.2295C190.64 89.1149 190.364 89.5198 190.364 89.5198Z" fill="black"/>
<path d="M194.72 90.6873L193.07 90.0818C193.07 90.0818 193.339 89.6842 194.004 89.9384C194.684 90.1986 194.72 90.6873 194.72 90.6873Z" fill="black"/>
<path d="M191.039 92.6768L192.707 93.1237C192.707 93.1237 192.492 93.6136 191.711 93.4045C190.931 93.1956 191.039 92.6768 191.039 92.6768Z" fill="white"/>
<path d="M189.389 91.1033C189.389 91.1033 190.604 87.0701 190.583 86.9405C190.583 86.9405 188.784 87.8863 189.389 91.1033Z" fill="#1E0B02"/>
<path d="M195.098 92.6021L196.064 88.1285C196.064 88.1285 197.082 89.8777 195.098 92.6021Z" fill="#1E0B02"/>
<path d="M191.946 86.9192C191.946 86.9192 190.882 86.9222 190.655 87.9053C190.428 88.8885 189.513 89.6693 189.513 89.6693L189.473 88.6153C189.473 88.6153 189.726 86.739 191.946 86.9192Z" fill="#1E0B02"/>
<path d="M191.674 86.9327C191.674 86.9327 192.53 86.7103 193.019 87.8351C193.436 88.7957 194.879 90.0561 196.07 89.5434C196.07 89.5434 196.044 87.1343 193.588 86.5253C191.133 85.9163 191.674 86.9327 191.674 86.9327Z" fill="#1E0B02"/>
<path d="M196.878 107.947L180.065 103.442C180.713 102.252 181.331 101.205 181.879 100.407C182.69 99.2301 183.558 98.6468 184.224 98.3606C184.889 98.0721 185.352 98.079 185.352 98.079L186.649 97.9035L194.028 99.8883L194.982 100.659C194.982 100.659 196.599 101.561 196.825 104.412C196.9 105.376 196.913 106.592 196.878 107.947Z" fill="#EF758D"/>
<path d="M190.845 97.3613L194.028 99.888C194.028 99.888 189.431 102.241 186.649 97.9027L190.845 97.3613Z" fill="#E8B499"/>
<path d="M186.648 97.9027C186.648 97.9027 187.524 99.7636 189.923 100.406C192.322 101.049 194.028 99.8881 194.028 99.8881" stroke="white" stroke-width="0.353679" stroke-miterlimit="10"/>
</g>
<rect x="211.214" y="84.7341" width="79.6488" height="7.39596" rx="3.69798" transform="rotate(15 211.214 84.7341)" fill="#E6E6E6"/>
<rect x="208.273" y="95.707" width="35.8419" height="7.39596" rx="3.69798" transform="rotate(15 208.273 95.707)" fill="#E6E6E6"/>
<rect x="205.334" y="106.68" width="17.2911" height="7.85959" rx="3.92979" transform="rotate(15 205.334 106.68)" fill="#E6E6E6"/>
</g>
<path d="M294.083 61.1655C292.534 65.4248 290.397 73.3419 292.981 76.766C292.981 76.766 291.084 81.0336 282.983 79.7224C274.069 78.2776 279.429 74.5779 279.429 74.5779C284.482 74.1937 284.929 70.5358 284.631 66.9781L294.083 61.1655Z" fill="#E4897B"/>
<path d="M277.566 75.9977C278.022 75.221 277.616 72.1894 277.616 72.1894C277.616 72.1894 290.506 71.229 295.012 73.1499C297.423 74.1771 295.012 78.5031 295.012 78.5031L277.566 75.9977Z" fill="#394FB6"/>
<path opacity="0.1" d="M277.566 75.9977C278.022 75.221 277.616 72.1894 277.616 72.1894C277.616 72.1894 290.506 71.229 295.012 73.1499C297.423 74.1771 295.012 78.5031 295.012 78.5031L277.566 75.9977Z" fill="black"/>
<path d="M279.223 53.6825C279.14 54.1669 278.825 54.5177 278.51 54.4676C278.196 54.4174 278.005 53.9832 278.08 53.4988C278.154 53.0144 278.477 52.6636 278.792 52.7137C279.107 52.7639 279.272 53.1981 279.223 53.6825Z" fill="#263238"/>
<path d="M279.165 53.9247C278.358 55.3124 277.362 56.5801 276.208 57.6912C276.496 57.9867 276.845 58.2147 277.23 58.359C277.615 58.5033 278.027 58.5605 278.436 58.5263L279.165 53.9247Z" fill="#DE5753"/>
<path d="M281.161 52.1792C281.109 52.1817 281.056 52.1689 281.011 52.1422C280.965 52.1156 280.928 52.0762 280.904 52.0289C280.746 51.7037 280.513 51.4212 280.225 51.2048C279.937 50.9884 279.602 50.8443 279.248 50.7845C279.18 50.7683 279.12 50.7282 279.079 50.6713C279.039 50.6144 279.019 50.5446 279.026 50.4747C279.032 50.4048 279.062 50.3394 279.112 50.2905C279.162 50.2416 279.228 50.2124 279.297 50.2083C279.746 50.2775 280.172 50.4539 280.539 50.7226C280.907 50.9914 281.205 51.3447 281.41 51.7533C281.445 51.821 281.453 51.9 281.431 51.9734C281.41 52.0468 281.36 52.1087 281.294 52.1458C281.253 52.1684 281.208 52.1799 281.161 52.1792Z" fill="#263238"/>
<path d="M241.606 245.824L235.625 245.013L235.907 230.833L241.888 231.643L241.606 245.824Z" fill="#E4897B"/>
<path d="M286.255 252.488H280.216L275.52 238.391H281.55L286.255 252.488Z" fill="#E4897B"/>
<path d="M279.415 251.778H286.779C286.898 251.781 287.014 251.823 287.107 251.899C287.2 251.974 287.265 252.079 287.292 252.196L288.485 257.608C288.513 257.739 288.51 257.876 288.478 258.006C288.446 258.137 288.385 258.258 288.3 258.362C288.215 258.466 288.108 258.548 287.986 258.604C287.865 258.66 287.732 258.688 287.599 258.685C285.23 258.643 283.507 258.51 280.525 258.51C278.686 258.51 274.908 258.702 272.373 258.702C269.838 258.702 269.507 256.196 270.542 255.946C275.198 254.918 276.946 253.507 278.437 252.154C278.706 251.912 279.054 251.778 279.415 251.778Z" fill="#263238"/>
<path d="M235.416 243.636L241.952 244.521C242.071 244.538 242.18 244.595 242.261 244.683C242.342 244.771 242.391 244.885 242.4 245.005L242.863 250.526C242.875 250.659 242.856 250.793 242.809 250.917C242.762 251.042 242.687 251.154 242.591 251.246C242.494 251.338 242.379 251.406 242.252 251.446C242.126 251.486 241.992 251.497 241.861 251.478C239.509 251.11 236.129 250.509 233.163 250.108C229.7 249.632 227.364 249.373 223.33 248.822C220.845 248.488 220.53 245.891 221.59 245.799C226.403 245.406 229.535 245.865 233.909 243.903C234.377 243.675 234.899 243.583 235.416 243.636Z" fill="#263238"/>
<path d="M235.906 230.833L235.757 238.149L241.746 238.959L241.887 231.651L235.906 230.833Z" fill="#CE6F64"/>
<path d="M281.558 238.399H275.52L277.947 245.665H283.986L281.558 238.399Z" fill="#CE6F64"/>
<path d="M270.111 75.1876C270.111 75.1876 260.609 92.4333 262.779 127.259L294.763 131.61C295.65 126.691 295.799 102.121 303.66 79.4385C300.216 78.2663 296.699 77.3233 293.131 76.6157C288.64 75.731 284.101 75.112 279.538 74.7617C276.389 74.6553 273.237 74.7977 270.111 75.1876Z" fill="#F8D83B"/>
<path d="M273.789 83.973C272.464 86.2864 271.056 88.5246 269.647 90.7962L265.365 97.4773C263.94 99.7155 262.449 101.92 260.949 104.158C260.204 105.261 259.433 106.355 258.663 107.449L257.495 109.119C257.064 109.712 256.559 110.389 256.078 110.948C254.192 113.122 252.112 115.118 249.865 116.911C247.703 118.648 245.508 120.252 243.238 121.755C238.758 124.745 234.084 127.429 229.247 129.789L227.035 125.822C231.177 122.757 235.319 119.525 239.262 116.243C241.225 114.573 243.147 112.902 244.945 111.157C246.697 109.508 248.31 107.715 249.766 105.795C250.114 105.336 250.379 104.96 250.694 104.434L251.713 102.764L253.742 99.4232L257.801 92.6836L261.861 85.9189C263.244 83.6807 264.594 81.4092 266.002 79.196L273.789 83.973Z" fill="#E4897B"/>
<path d="M276.736 82.5952C275.966 88.3577 265.967 102.071 265.967 102.071L252.042 90.22C252.042 90.22 259.324 82.0106 265.296 77.3255C271.269 72.6403 277.565 76.2648 276.736 82.5952Z" fill="#F8D83B"/>
<path d="M230.034 124.085L224.823 125.872L230.042 131.359C230.042 131.359 233.223 130.975 232.933 126.549L230.034 124.085Z" fill="#E4897B"/>
<path d="M221.367 130.048L227.323 132.996L230.04 131.359L224.822 125.872L221.367 130.048Z" fill="#E4897B"/>
<path d="M295.657 54.6346C294.349 60.5307 293.876 64.0467 290.414 66.6189C285.195 70.4856 278.344 66.6189 277.88 60.4138C277.458 54.8601 279.67 46.1579 285.833 44.7215C287.188 44.3988 288.603 44.4309 289.943 44.8149C291.283 45.1989 292.503 45.922 293.488 46.9154C294.472 47.9088 295.188 49.1395 295.568 50.4906C295.948 51.8417 295.979 53.2682 295.657 54.6346Z" fill="#E4897B"/>
<path d="M303.751 54.4343C303.674 53.9806 303.502 53.5486 303.246 53.1671C302.99 52.7855 302.657 52.4631 302.269 52.2212C305.102 50.9685 303.685 49.5153 301.266 47.3941C298.143 44.5797 296.843 38.884 296.984 37.6647C295.998 39.1763 296.263 41.4061 297.099 43.4105C296.057 42.2531 295.217 40.9259 294.614 39.4853C292.195 33.3637 286.968 38.717 281.923 38.8923C273.449 39.1846 280.159 34.7166 286.38 34.8502C277.111 31.9857 267.866 35.5351 269.373 41.7819C270.881 48.0288 281.252 40.1116 281.194 45.8741C281.194 47.0433 282.462 48.1958 284.342 49.1061C281.733 54.5178 288.095 65.3914 291.798 65.7422C295.501 66.0929 301.987 59.5955 302.26 53.9667C302.782 54.0258 303.288 54.1845 303.751 54.4343Z" fill="#263238"/>
<path d="M287.24 55.9793C286.871 57.4506 285.943 58.7165 284.656 59.5036C282.933 60.5224 281.566 59.1027 281.607 57.1902C281.649 55.4782 282.601 52.8725 284.532 52.6303C284.955 52.5851 285.382 52.647 285.776 52.8103C286.169 52.9736 286.516 53.2333 286.785 53.5657C287.054 53.8981 287.236 54.2929 287.316 54.7143C287.395 55.1357 287.369 55.5705 287.24 55.9793Z" fill="#E4897B"/>
<path d="M286.165 244.254H275.081C275.081 244.254 260.485 206.731 258.936 187.264C258.604 183.088 259.267 177.584 260.493 171.663C262.58 161.541 266.292 150.125 269.274 141.598C271.949 134.082 274.095 128.779 274.095 128.779L294.747 131.593C292.717 146.701 276.332 170.728 276.141 191.389C275.984 210.447 286.165 244.254 286.165 244.254Z" fill="#394FB6"/>
<path opacity="0.1" d="M286.165 244.254H275.081C275.081 244.254 260.485 206.731 258.936 187.264C258.604 183.088 259.267 177.584 260.493 171.663C262.58 161.541 266.292 150.125 269.274 141.598C271.949 134.082 274.095 128.779 274.095 128.779L294.747 131.593C292.717 146.701 276.332 170.728 276.141 191.389C275.984 210.447 286.165 244.254 286.165 244.254Z" fill="black"/>
<path d="M274.526 146.341C273.805 156.438 266.101 167.178 260.518 171.663C262.605 161.541 266.316 150.125 269.298 141.598C270.864 141.406 273.341 144.521 274.526 146.341Z" fill="#394FB6"/>
<path opacity="0.2" d="M274.526 146.341C273.805 156.438 266.101 167.178 260.518 171.663C262.605 161.541 266.316 150.125 269.298 141.598C270.864 141.406 273.341 144.521 274.526 146.341Z" fill="black"/>
<path d="M262.779 127.259C262.779 127.259 234.382 165.383 232.568 183.831C230.679 203.039 233.703 236.445 233.703 236.445L243.834 237.823C243.834 237.823 246.891 206.455 249.865 187.714C253.095 167.304 283.829 146.2 285.974 130.399L262.779 127.259Z" fill="#394FB6"/>
<path opacity="0.1" d="M262.779 127.259C262.779 127.259 234.382 165.383 232.568 183.831C230.679 203.039 233.703 236.445 233.703 236.445L243.834 237.823C243.834 237.823 246.891 206.455 249.865 187.714C253.095 167.304 283.829 146.2 285.974 130.399L262.779 127.259Z" fill="black"/>
<path d="M273.15 244.496H287.606V240.571L271.452 240.321L273.15 244.496Z" fill="#394FB6"/>
<path opacity="0.4" d="M273.15 244.496H287.606V240.571L271.452 240.321L273.15 244.496Z" fill="#FAFAFA"/>
<path d="M231.655 236.378L245.73 238.324L246.252 234.399L230.521 232.01L231.655 236.378Z" fill="#394FB6"/>
<path opacity="0.4" d="M231.655 236.378L245.73 238.324L246.252 234.399L230.521 232.01L231.655 236.378Z" fill="#FAFAFA"/>
<path d="M277.417 252.848C277.006 252.878 276.596 252.766 276.257 252.53C276.147 252.44 276.061 252.323 276.009 252.189C275.957 252.056 275.94 251.912 275.959 251.77C275.959 251.686 275.982 251.602 276.026 251.53C276.07 251.458 276.132 251.399 276.207 251.361C276.87 251.027 278.825 252.196 279.04 252.363C279.063 252.378 279.082 252.4 279.093 252.425C279.105 252.45 279.11 252.478 279.107 252.505C279.103 252.534 279.091 252.561 279.072 252.582C279.052 252.603 279.027 252.617 278.999 252.622C278.482 252.76 277.951 252.836 277.417 252.848ZM276.522 251.586C276.462 251.572 276.4 251.572 276.34 251.586C276.34 251.586 276.257 251.645 276.249 251.753C276.235 251.85 276.245 251.949 276.278 252.041C276.312 252.132 276.367 252.215 276.439 252.28C277.115 252.588 277.882 252.627 278.585 252.388C277.954 251.99 277.254 251.718 276.522 251.586Z" fill="#394FB6"/>
<path d="M278.965 252.63H278.899C278.269 252.288 277.068 250.96 277.193 250.275C277.214 250.169 277.271 250.074 277.354 250.005C277.437 249.937 277.541 249.899 277.648 249.899C277.756 249.884 277.866 249.892 277.971 249.924C278.075 249.955 278.172 250.01 278.253 250.083C278.957 250.659 279.081 252.413 279.081 252.488C279.086 252.515 279.082 252.542 279.07 252.566C279.058 252.59 279.039 252.61 279.015 252.622L278.965 252.63ZM277.748 250.125H277.681C277.499 250.125 277.482 250.234 277.474 250.267C277.4 250.668 278.17 251.678 278.791 252.154C278.746 251.463 278.498 250.8 278.079 250.25C277.983 250.181 277.865 250.148 277.748 250.158V250.125Z" fill="#394FB6"/>
<path d="M233.893 244.421C232.948 244.421 231.822 244.295 231.408 243.786C231.323 243.686 231.264 243.567 231.234 243.439C231.203 243.312 231.203 243.179 231.234 243.051C231.251 242.973 231.286 242.901 231.337 242.84C231.387 242.779 231.451 242.731 231.524 242.7C232.302 242.399 234.539 243.953 234.796 244.128C234.82 244.146 234.839 244.17 234.849 244.199C234.859 244.227 234.861 244.258 234.854 244.287C234.845 244.316 234.827 244.341 234.804 244.359C234.78 244.377 234.751 244.387 234.721 244.387C234.489 244.404 234.191 244.421 233.893 244.421ZM231.756 242.951C231.704 242.938 231.65 242.938 231.598 242.951C231.569 242.96 231.544 242.978 231.525 243.001C231.506 243.025 231.494 243.054 231.491 243.084C231.469 243.168 231.468 243.255 231.486 243.34C231.505 243.424 231.543 243.502 231.598 243.569C231.921 243.944 232.907 244.145 234.249 244.095C233.502 243.549 232.654 243.16 231.756 242.951Z" fill="#394FB6"/>
<path d="M234.689 244.396H234.615C233.936 243.97 232.685 242.475 232.883 241.807C232.925 241.656 233.057 241.473 233.422 241.473H233.463C233.606 241.479 233.746 241.515 233.876 241.576C234.005 241.638 234.121 241.725 234.217 241.832C234.672 242.562 234.887 243.418 234.83 244.279C234.831 244.305 234.825 244.33 234.811 244.353C234.798 244.375 234.779 244.393 234.756 244.404L234.689 244.396ZM233.422 241.74C233.19 241.74 233.165 241.832 233.157 241.865C233.033 242.266 233.869 243.419 234.549 243.97C234.571 243.272 234.38 242.584 234.002 241.999C233.934 241.92 233.85 241.856 233.756 241.811C233.661 241.766 233.559 241.742 233.455 241.74H233.422Z" fill="#394FB6"/>
<defs>
<filter id="filter0_dd_75_6850" x="11.1322" y="5.03088" width="189.28" height="57.4775" filterUnits="userSpaceOnUse" color-interpolation-filters="sRGB">
<feFlood flood-opacity="0" result="BackgroundImageFix"/>
<feColorMatrix in="SourceAlpha" type="matrix" values="0 0 0 0 0 0 0 0 0 0 0 0 0 0 0 0 0 0 127 0" result="hardAlpha"/>
<feMorphology radius="0.990991" operator="erode" in="SourceAlpha" result="effect1_dropShadow_75_6850"/>
<feOffset dy="1.98198"/>
<feGaussianBlur stdDeviation="1.48649"/>
<feComposite in2="hardAlpha" operator="out"/>
<feColorMatrix type="matrix" values="0 0 0 0 0.0392157 0 0 0 0 0.0509804 0 0 0 0 0.0705882 0 0 0 0.03 0"/>
<feBlend mode="normal" in2="BackgroundImageFix" result="effect1_dropShadow_75_6850"/>
<feColorMatrix in="SourceAlpha" type="matrix" values="0 0 0 0 0 0 0 0 0 0 0 0 0 0 0 0 0 0 127 0" result="hardAlpha"/>
<feMorphology radius="1.98198" operator="erode" in="SourceAlpha" result="effect2_dropShadow_75_6850"/>
<feOffset dy="5.94595"/>
<feGaussianBlur stdDeviation="3.96396"/>
<feComposite in2="hardAlpha" operator="out"/>
<feColorMatrix type="matrix" values="0 0 0 0 0.0392157 0 0 0 0 0.0509804 0 0 0 0 0.0705882 0 0 0 0.08 0"/>
<feBlend mode="normal" in2="effect1_dropShadow_75_6850" result="effect2_dropShadow_75_6850"/>
<feBlend mode="normal" in="SourceGraphic" in2="effect2_dropShadow_75_6850" result="shape"/>
</filter>
<filter id="filter1_dd_75_6850" x="11.1322" y="108.777" width="189.28" height="57.4775" filterUnits="userSpaceOnUse" color-interpolation-filters="sRGB">
<feFlood flood-opacity="0" result="BackgroundImageFix"/>
<feColorMatrix in="SourceAlpha" type="matrix" values="0 0 0 0 0 0 0 0 0 0 0 0 0 0 0 0 0 0 127 0" result="hardAlpha"/>
<feMorphology radius="0.990991" operator="erode" in="SourceAlpha" result="effect1_dropShadow_75_6850"/>
<feOffset dy="1.98198"/>
<feGaussianBlur stdDeviation="1.48649"/>
<feComposite in2="hardAlpha" operator="out"/>
<feColorMatrix type="matrix" values="0 0 0 0 0.0392157 0 0 0 0 0.0509804 0 0 0 0 0.0705882 0 0 0 0.03 0"/>
<feBlend mode="normal" in2="BackgroundImageFix" result="effect1_dropShadow_75_6850"/>
<feColorMatrix in="SourceAlpha" type="matrix" values="0 0 0 0 0 0 0 0 0 0 0 0 0 0 0 0 0 0 127 0" result="hardAlpha"/>
<feMorphology radius="1.98198" operator="erode" in="SourceAlpha" result="effect2_dropShadow_75_6850"/>
<feOffset dy="5.94595"/>
<feGaussianBlur stdDeviation="3.96396"/>
<feComposite in2="hardAlpha" operator="out"/>
<feColorMatrix type="matrix" values="0 0 0 0 0.0392157 0 0 0 0 0.0509804 0 0 0 0 0.0705882 0 0 0 0.08 0"/>
<feBlend mode="normal" in2="effect1_dropShadow_75_6850" result="effect2_dropShadow_75_6850"/>
<feBlend mode="normal" in="SourceGraphic" in2="effect2_dropShadow_75_6850" result="shape"/>
</filter>
<filter id="filter2_dd_75_6850" x="11.1322" y="160.651" width="189.28" height="57.4776" filterUnits="userSpaceOnUse" color-interpolation-filters="sRGB">
<feFlood flood-opacity="0" result="BackgroundImageFix"/>
<feColorMatrix in="SourceAlpha" type="matrix" values="0 0 0 0 0 0 0 0 0 0 0 0 0 0 0 0 0 0 127 0" result="hardAlpha"/>
<feMorphology radius="0.990991" operator="erode" in="SourceAlpha" result="effect1_dropShadow_75_6850"/>
<feOffset dy="1.98198"/>
<feGaussianBlur stdDeviation="1.48649"/>
<feComposite in2="hardAlpha" operator="out"/>
<feColorMatrix type="matrix" values="0 0 0 0 0.0392157 0 0 0 0 0.0509804 0 0 0 0 0.0705882 0 0 0 0.03 0"/>
<feBlend mode="normal" in2="BackgroundImageFix" result="effect1_dropShadow_75_6850"/>
<feColorMatrix in="SourceAlpha" type="matrix" values="0 0 0 0 0 0 0 0 0 0 0 0 0 0 0 0 0 0 127 0" result="hardAlpha"/>
<feMorphology radius="1.98198" operator="erode" in="SourceAlpha" result="effect2_dropShadow_75_6850"/>
<feOffset dy="5.94595"/>
<feGaussianBlur stdDeviation="3.96396"/>
<feComposite in2="hardAlpha" operator="out"/>
<feColorMatrix type="matrix" values="0 0 0 0 0.0392157 0 0 0 0 0.0509804 0 0 0 0 0.0705882 0 0 0 0.08 0"/>
<feBlend mode="normal" in2="effect1_dropShadow_75_6850" result="effect2_dropShadow_75_6850"/>
<feBlend mode="normal" in="SourceGraphic" in2="effect2_dropShadow_75_6850" result="shape"/>
</filter>
<filter id="filter3_dd_75_6850" x="11.1322" y="212.524" width="189.28" height="57.4776" filterUnits="userSpaceOnUse" color-interpolation-filters="sRGB">
<feFlood flood-opacity="0" result="BackgroundImageFix"/>
<feColorMatrix in="SourceAlpha" type="matrix" values="0 0 0 0 0 0 0 0 0 0 0 0 0 0 0 0 0 0 127 0" result="hardAlpha"/>
<feMorphology radius="0.990991" operator="erode" in="SourceAlpha" result="effect1_dropShadow_75_6850"/>
<feOffset dy="1.98198"/>
<feGaussianBlur stdDeviation="1.48649"/>
<feComposite in2="hardAlpha" operator="out"/>
<feColorMatrix type="matrix" values="0 0 0 0 0.0392157 0 0 0 0 0.0509804 0 0 0 0 0.0705882 0 0 0 0.03 0"/>
<feBlend mode="normal" in2="BackgroundImageFix" result="effect1_dropShadow_75_6850"/>
<feColorMatrix in="SourceAlpha" type="matrix" values="0 0 0 0 0 0 0 0 0 0 0 0 0 0 0 0 0 0 127 0" result="hardAlpha"/>
<feMorphology radius="1.98198" operator="erode" in="SourceAlpha" result="effect2_dropShadow_75_6850"/>
<feOffset dy="5.94595"/>
<feGaussianBlur stdDeviation="3.96396"/>
<feComposite in2="hardAlpha" operator="out"/>
<feColorMatrix type="matrix" values="0 0 0 0 0.0392157 0 0 0 0 0.0509804 0 0 0 0 0.0705882 0 0 0 0.08 0"/>
<feBlend mode="normal" in2="effect1_dropShadow_75_6850" result="effect2_dropShadow_75_6850"/>
<feBlend mode="normal" in="SourceGraphic" in2="effect2_dropShadow_75_6850" result="shape"/>
</filter>
<filter id="filter4_dd_75_6850" x="161.142" y="69.9164" width="195.033" height="101.835" filterUnits="userSpaceOnUse" color-interpolation-filters="sRGB">
<feFlood flood-opacity="0" result="BackgroundImageFix"/>
<feColorMatrix in="SourceAlpha" type="matrix" values="0 0 0 0 0 0 0 0 0 0 0 0 0 0 0 0 0 0 127 0" result="hardAlpha"/>
<feMorphology radius="0.990991" operator="erode" in="SourceAlpha" result="effect1_dropShadow_75_6850"/>
<feOffset dy="1.98198"/>
<feGaussianBlur stdDeviation="1.48649"/>
<feComposite in2="hardAlpha" operator="out"/>
<feColorMatrix type="matrix" values="0 0 0 0 0.0392157 0 0 0 0 0.0509804 0 0 0 0 0.0705882 0 0 0 0.03 0"/>
<feBlend mode="normal" in2="BackgroundImageFix" result="effect1_dropShadow_75_6850"/>
<feColorMatrix in="SourceAlpha" type="matrix" values="0 0 0 0 0 0 0 0 0 0 0 0 0 0 0 0 0 0 127 0" result="hardAlpha"/>
<feMorphology radius="1.98198" operator="erode" in="SourceAlpha" result="effect2_dropShadow_75_6850"/>
<feOffset dy="5.94595"/>
<feGaussianBlur stdDeviation="3.96396"/>
<feComposite in2="hardAlpha" operator="out"/>
<feColorMatrix type="matrix" values="0 0 0 0 0.0392157 0 0 0 0 0.0509804 0 0 0 0 0.0705882 0 0 0 0.08 0"/>
<feBlend mode="normal" in2="effect1_dropShadow_75_6850" result="effect2_dropShadow_75_6850"/>
<feBlend mode="normal" in="SourceGraphic" in2="effect2_dropShadow_75_6850" result="shape"/>
</filter>
<clipPath id="clip0_75_6850">
<rect x="23.0244" y="10.9768" width="25.1507" height="25.1507" rx="12.5753" fill="white"/>
</clipPath>
<clipPath id="clip1_75_6850">
<rect x="23.0244" y="114.723" width="25.1507" height="25.1507" rx="12.5753" fill="white"/>
</clipPath>
<clipPath id="clip2_75_6850">
<rect x="23.0244" y="166.597" width="25.1507" height="25.1507" rx="12.5753" fill="white"/>
</clipPath>
<clipPath id="clip3_75_6850">
<rect x="23.0244" y="218.47" width="25.1507" height="25.1507" rx="12.5753" fill="white"/>
</clipPath>
<clipPath id="clip4_75_6850">
<rect x="52.1387" y="229.83" width="35.8419" height="7.39596" rx="3.69798" fill="white"/>
</clipPath>
<clipPath id="clip5_75_6850">
<rect x="52.1387" y="241.19" width="17.2911" height="7.85959" rx="3.92979" fill="white"/>
</clipPath>
<clipPath id="clip6_75_6850">
<rect x="183.091" y="77.1986" width="25.1507" height="25.1507" rx="12.5753" transform="rotate(15 183.091 77.1986)" fill="white"/>
</clipPath>
</defs>
</svg>
